<svg viewBox="0 0 250 100" fill="none" xmlns="http://www.w3.org/2000/svg">
    <g clip-path="url(#clip0)">
        <g filter="url(#filter0_f)">
            <path d="M3.83578 100V32.4454H29.0104L70.8592 69.2411L55.0024 83.1832L29.0104 60.3296V100H3.83578Z"
                fill="#F4F4F2" />
        </g>
        <g filter="url(#filter1_f)">
            <path d="M106.169 100V32.4454H80.9944L39.1457 69.2411L55.0024 83.1832L80.9944 60.3296V100H106.169Z"
                fill="#F4F4F2" />
        </g>
        <g filter="url(#filter2_f)">
            <path
                d="M17.3252 27.5751C25.435 27.5751 32.0092 21.7946 32.0092 14.664C32.0092 7.53347 25.435 1.75299 17.3252 1.75299C9.21536 1.75299 2.64107 7.53347 2.64107 14.664C2.64107 21.7946 9.21536 27.5751 17.3252 27.5751Z"
                fill="#F4F4F2" />
        </g>
        <g filter="url(#filter3_f)">
            <path
                d="M92.6183 27.5751C100.728 27.5751 107.302 21.7946 107.302 14.664C107.302 7.53347 100.728 1.75299 92.6183 1.75299C84.5085 1.75299 77.9342 7.53347 77.9342 14.664C77.9342 21.7946 84.5085 27.5751 92.6183 27.5751Z"
                fill="#F4F4F2" />
        </g>
        <path d="M1.19471 98.2469V30.6924H26.3694L68.2181 67.4881L52.3614 81.4302L26.3694 58.5766V98.2469H1.19471Z"
            fill="#D3EB74" />
        <path d="M103.528 98.2469V30.6924H78.3534L36.5047 67.4881L52.3614 81.4302L78.3534 58.5766V98.2469H103.528Z"
            fill="#13C0E5" />
        <path
            d="M14.6841 25.8221C22.7939 25.8221 29.3682 20.0416 29.3682 12.9111C29.3682 5.78048 22.7939 0 14.6841 0C6.57429 0 0 5.78048 0 12.9111C0 20.0416 6.57429 25.8221 14.6841 25.8221Z"
            fill="#D3EB74" />
        <path
            d="M89.9773 25.8221C98.0871 25.8221 104.661 20.0416 104.661 12.9111C104.661 5.78048 98.0871 0 89.9773 0C81.8675 0 75.2932 5.78048 75.2932 12.9111C75.2932 20.0416 81.8675 25.8221 89.9773 25.8221Z"
            fill="#13C0E5" />
        <path d="M52.3614 53.546L36.5047 67.4881L52.3614 81.4302V53.546Z" fill="#13C0E5" />
        <path d="M52.3614 53.546L68.2181 67.4881L52.3614 81.4302V53.546Z" fill="#D3EC74" fill-opacity="0.995049" />
        <path d="M61.8471 67.4888L52.3614 59.1485L42.8758 67.4888L52.3614 75.8291L61.8471 67.4888Z" fill="#F4F4F2" />
        <path
            d="M133.439 61.4356C133.131 60.82 132.881 59.7234 132.688 58.1459C130.207 60.7238 127.244 62.0127 123.8 62.0127C120.722 62.0127 118.192 61.147 116.211 59.4156C114.249 57.6649 113.268 55.4526 113.268 52.7785C113.268 49.5273 114.499 47.0071 116.961 45.218C119.443 43.4096 122.925 42.5054 127.407 42.5054H132.602V40.0526C132.602 38.1865 132.044 36.7052 130.928 35.6086C129.812 34.4928 128.167 33.9349 125.993 33.9349C124.089 33.9349 122.492 34.4158 121.203 35.3777C119.914 36.3396 119.27 37.5035 119.27 38.8694H113.902C113.902 37.3112 114.451 35.8106 115.547 34.3677C116.663 32.9057 118.164 31.7514 120.049 30.9049C121.953 30.0584 124.041 29.6352 126.311 29.6352C129.908 29.6352 132.727 30.5394 134.766 32.3478C136.805 34.1369 137.863 36.609 137.94 39.764V54.1348C137.94 57.0012 138.306 59.2809 139.037 60.9739V61.4356H133.439ZM124.579 57.3667C126.253 57.3667 127.84 56.9339 129.341 56.0682C130.841 55.2025 131.928 54.077 132.602 52.6919V46.2857H128.417C121.876 46.2857 118.606 48.1998 118.606 52.0282C118.606 53.7019 119.164 55.0101 120.28 55.9527C121.396 56.8954 122.829 57.3667 124.579 57.3667ZM161.401 35.0026C160.593 34.8679 159.718 34.8006 158.775 34.8006C155.274 34.8006 152.898 36.2915 151.647 39.2734V61.4356H146.309V30.2123H151.503L151.59 33.8195C153.34 31.03 155.822 29.6352 159.035 29.6352C160.073 29.6352 160.862 29.7699 161.401 30.0392V35.0026ZM175.021 22.6518V30.2123H180.85V34.3389H175.021V53.7019C175.021 54.9524 175.281 55.895 175.801 56.5299C176.32 57.1455 177.205 57.4533 178.455 57.4533C179.071 57.4533 179.917 57.3379 180.995 57.107V61.4356C179.59 61.8203 178.225 62.0127 176.897 62.0127C174.512 62.0127 172.713 61.2913 171.501 59.8484C170.289 58.4056 169.683 56.3567 169.683 53.7019V34.3389H163.998V30.2123H169.683V22.6518H175.021ZM206.389 61.4356C206.081 60.82 205.831 59.7234 205.639 58.1459C203.157 60.7238 200.194 62.0127 196.751 62.0127C193.673 62.0127 191.143 61.147 189.161 59.4156C187.199 57.6649 186.218 55.4526 186.218 52.7785C186.218 49.5273 187.449 47.0071 189.912 45.218C192.393 43.4096 195.875 42.5054 200.358 42.5054H205.552V40.0526C205.552 38.1865 204.994 36.7052 203.878 35.6086C202.763 34.4928 201.118 33.9349 198.944 33.9349C197.039 33.9349 195.443 34.4158 194.154 35.3777C192.865 36.3396 192.22 37.5035 192.22 38.8694H186.853C186.853 37.3112 187.401 35.8106 188.498 34.3677C189.613 32.9057 191.114 31.7514 192.999 30.9049C194.904 30.0584 196.991 29.6352 199.261 29.6352C202.859 29.6352 205.677 30.5394 207.716 32.3478C209.756 34.1369 210.814 36.609 210.891 39.764V54.1348C210.891 57.0012 211.256 59.2809 211.987 60.9739V61.4356H206.389ZM197.53 57.3667C199.204 57.3667 200.791 56.9339 202.291 56.0682C203.792 55.2025 204.879 54.077 205.552 52.6919V46.2857H201.368C194.827 46.2857 191.556 48.1998 191.556 52.0282C191.556 53.7019 192.114 55.0101 193.23 55.9527C194.346 56.8954 195.779 57.3667 197.53 57.3667Z"
            fill="#13C0E5" />
    </g>
    <defs>
        <filter id="filter0_f" x="3.62218" y="32.2318" width="67.4506" height="67.9818" filterUnits="userSpaceOnUse"
            color-interpolation-filters="sRGB">
            <feFlood flood-opacity="0" result="BackgroundImageFix" />
            <feBlend mode="normal" in="SourceGraphic" in2="BackgroundImageFix" result="shape" />
            <feGaussianBlur stdDeviation="0.106802" result="effect1_foregroundBlur" />
        </filter>
        <filter id="filter1_f" x="38.9321" y="32.2318" width="67.4506" height="67.9818" filterUnits="userSpaceOnUse"
            color-interpolation-filters="sRGB">
            <feFlood flood-opacity="0" result="BackgroundImageFix" />
            <feBlend mode="normal" in="SourceGraphic" in2="BackgroundImageFix" result="shape" />
            <feGaussianBlur stdDeviation="0.106802" result="effect1_foregroundBlur" />
        </filter>
        <filter id="filter2_f" x="2.42746" y="1.53939" width="29.7954" height="26.2493" filterUnits="userSpaceOnUse"
            color-interpolation-filters="sRGB">
            <feFlood flood-opacity="0" result="BackgroundImageFix" />
            <feBlend mode="normal" in="SourceGraphic" in2="BackgroundImageFix" result="shape" />
            <feGaussianBlur stdDeviation="0.106802" result="effect1_foregroundBlur" />
        </filter>
        <filter id="filter3_f" x="77.7206" y="1.53939" width="29.7954" height="26.2493" filterUnits="userSpaceOnUse"
            color-interpolation-filters="sRGB">
            <feFlood flood-opacity="0" result="BackgroundImageFix" />
            <feBlend mode="normal" in="SourceGraphic" in2="BackgroundImageFix" result="shape" />
            <feGaussianBlur stdDeviation="0.106802" result="effect1_foregroundBlur" />
        </filter>
        <clipPath id="clip0">
            <rect width="250" height="100" fill="white" />
        </clipPath>
    </defs>
</svg>